HIERARCHY
ROOT pelvis
{
  OFFSET 0 100 0
  CHANNELS 6 Xposition Yposition Zposition Zrotation Xrotation Yrotation
  JOINT pelvis_right_femur
  {
    OFFSET -10.78128 -3.44521 -0.5502486
    CHANNELS 3 Zrotation Xrotation Yrotation
    JOINT right_femur_tibia
    {
      OFFSET -0.8047443 -44.0398 -0.1307829
      CHANNELS 3 Zrotation Xrotation Yrotation
      JOINT right_tibia_foot
      {
        OFFSET 3.006224 -47.83518 -5
        CHANNELS 3 Zrotation Xrotation Yrotation
        End Site
        {
          OFFSET 0 -5 15
        }
      }
    }
  }
  JOINT pelvis_left_femur
  {
    OFFSET 10.78128 -3.44521 -0.5502486
    CHANNELS 3 Zrotation Xrotation Yrotation
    JOINT left_femur_tibia
    {
      OFFSET 0.8047443 -44.0398 -0.1307829
      CHANNELS 3 Zrotation Xrotation Yrotation
      JOINT left_tibia_foot
      {
        OFFSET -4.370144 -48.10324 -4.275266
        CHANNELS 3 Zrotation Xrotation Yrotation
        End Site
        {
          OFFSET 0 -5 15
        }
      }
    }
  }
  JOINT pelvis_spine1
  {
    OFFSET 0 6.468898 -3.129235
    CHANNELS 3 Zrotation Xrotation Yrotation
    JOINT spine1
    {
      OFFSET 0 23.15396 4.99043
      CHANNELS 3 Zrotation Xrotation Yrotation
      JOINT spine2
      {
        OFFSET 0 20.79997 -5.064912
        CHANNELS 3 Zrotation Xrotation Yrotation
        JOINT neck
        {
          OFFSET 0 14.38658 9.616178
          CHANNELS 3 Zrotation Xrotation Yrotation
          End Site
          {
            OFFSET 0 20 0
          }
        }
      }
      JOINT right_manubrium
      {
        OFFSET -5.722621 16.35077 3.967754
        CHANNELS 3 Zrotation Xrotation Yrotation
        JOINT right_clavicle
        {
          OFFSET -13.16364 1.694482 -4.693211
          CHANNELS 3 Zrotation Xrotation Yrotation
          JOINT right_humerus
          {
            OFFSET -28.5034 -0.3100689 -2.792744
            CHANNELS 3 Zrotation Xrotation Yrotation
            JOINT right_radius
            {
              OFFSET -25.15693 0.02248979 -1.271978
              CHANNELS 3 Zrotation Xrotation Yrotation
              End Site
              {
                OFFSET -15 0 0
              }
            }
          }
        }
      }
      JOINT left_manubrium
      {
        OFFSET 5.722621 16.35077 3.967754
        CHANNELS 3 Zrotation Xrotation Yrotation
        JOINT left_clavicle
        {
          OFFSET 13.16364 1.694482 -4.693211
          CHANNELS 3 Zrotation Xrotation Yrotation
          JOINT left_humerus
          {
            OFFSET 29.39168 -1.063119 -2.237045
            CHANNELS 3 Zrotation Xrotation Yrotation
            JOINT left_radius
            {
              OFFSET 24.59957 -0.9528479 0.9047498
              CHANNELS 3 Zrotation Xrotation Yrotation
              End Site
              {
                OFFSET 15 -0 -0
              }
            }
          }
        }
      }
    }
  }
}
MOTION
Frames: 9
Frame Time: 0.0416666666667
0 103.5113 0 0.709642 -0.8502293 0.7134289 1.895269 -22.18276 4.770129 -0 33.48179 -0 -2.863856 -8.109763 -4.091196 -6.283576 11.72989 -17.17517 0 -1.40193 0 2.558049 -21.55712 20.10335 -3.823104 -1.029488 3.074695 2.234658 8.032768 -7.570506 1.230253 21.78833 7.259928 3.047858 -22.48499 8.906579 4.984 -17.51596 10.61256 85.41134 32.99985 -17.78947 -0 0 14.39584 -12.58824 9.146917 7.982449 6.031243 -19.07411 -2.470906 -89.31272 28.07506 16.20893 0 0 -19.05698 2.533317 12.27582 10.76763
0.4911294 102.8056 3.572775 0.7256803 -0.7723705 1.4177 1.89274 -22.20541 4.850997 -0 33.5695 -0 -2.800051 -8.279429 -4.089932 -6.298855 11.68906 -17.26288 0 -1.624556 0 2.571401 -21.61134 20.15708 -3.852909 -1.02017 3.085913 2.247985 7.984119 -7.569145 1.224945 21.77592 7.27656 3.058994 -22.50265 8.918214 5.062578 -17.50441 10.60761 85.29118 33.16052 -17.72605 -0 0 14.48141 -12.49066 9.133821 7.959255 6.030175 -19.00927 -2.422633 -89.36929 28.18626 16.26664 0 0 -19.01457 2.444162 12.24381 10.87999
0.8769773 101.9388 7.025318 0.3426856 -0.1041446 1.959182 2.853522 -25.29528 4.666029 -0 27.42725 -0 -3.940399 -9.06655 -3.9123 -5.823572 13.32176 -17.26211 0 -0.5209364 0 3.165522 -21.79108 19.87626 -3.480347 -1.249186 2.9248 2.671564 8.224772 -8.090324 1.135439 21.54858 7.258271 3.051837 -23.21176 8.931592 4.809342 -17.66938 10.77918 86.31719 33.23708 -19.3966 -0 0 13.57917 -11.75928 9.38525 7.403343 6.335837 -20.13874 -2.551599 -88.87731 27.4632 15.58451 0 0 -21.08233 3.865387 13.06254 9.130408
1.182375 100.9122 10.40719 0.06007541 0.2682722 2.401224 3.510686 -27.40328 4.425529 -0 23.03717 -0 -4.853277 -9.37604 -3.765925 -5.473158 14.4978 -17.1739 -0 0.2700657 -0 3.641229 -21.87653 19.65311 -3.183758 -1.438508 2.797311 2.947047 8.468515 -8.455642 1.076718 21.40465 7.224041 3.028355 -23.70464 8.930767 4.501631 -17.85168 10.90734 87.19613 33.02565 -20.61184 -0 0 12.87626 -11.39829 9.571449 7.067193 6.556074 -21.02798 -2.710464 -88.50221 26.77387 15.10512 0 0 -22.55422 5.043317 13.69082 7.688006
1.40207 99.80563 13.79554 -0.1755459 0.4813732 2.743049 4.117378 -29.11535 4.277169 -0 19.26145 -0 -5.56587 -9.522728 -3.744216 -5.166139 15.50253 -16.9339 -0 2.110974 -0 3.746899 -21.76384 19.26613 -2.895202 -1.549583 2.694968 3.171644 8.680181 -8.757775 1.045647 21.30586 7.17001 3.005936 -24.01354 8.8942 4.247342 -17.85703 11.01136 88.00528 32.76552 -21.7328 -0 0 12.09322 -11.14873 9.756483 6.749765 6.709006 -21.77637 -2.863879 -88.066 26.17927 14.4771 0 0 -23.88039 5.964869 14.06797 6.557726
1.544982 98.6825 17.2765 -0.3422628 0.4574072 2.999401 4.585174 -30.25297 4.102598 -0 16.4257 -0 -6.105128 -9.30008 -3.808855 -4.928104 16.29216 -16.51082 -0 4.68284 -0 3.560164 -21.46099 18.75545 -2.620575 -1.600014 2.610369 3.307074 8.899143 -8.969327 1.045986 21.27164 7.089845 2.97322 -24.11949 8.823471 3.968786 -17.74993 11.088 88.77909 32.29715 -22.67729 -0 0 11.26357 -11.14604 9.929491 6.527301 6.789323 -22.39054 -3.053941 -87.59095 25.59749 13.77217 0 0 -24.94718 6.671629 14.24806 5.684627
1.620076 97.62453 20.94344 -0.4323715 0.2088137 3.182779 4.932607 -30.79836 3.957693 -0 14.55345 -0 -6.407404 -8.781122 -3.991764 -4.763833 16.83615 -15.89534 -0 8.261378 -0 2.989579 -20.92853 18.09204 -2.364826 -1.565781 2.552917 3.357832 9.097082 -9.085526 1.080986 21.30152 6.984934 2.936896 -23.99597 8.71336 3.719221 -17.47072 11.13434 89.46446 31.7081 -23.44052 -0 0 10.37845 -11.34688 10.09354 6.374375 6.785409 -22.8263 -3.257776 -87.06705 25.09626 12.9465 0 0 -25.75566 7.063136 14.17793 5.186116
1.638985 96.71289 24.88612 -0.4451706 -0.2592788 3.306385 5.160895 -30.71999 3.839957 -0 13.62767 -0 -6.468756 -7.991069 -4.288496 -4.669287 17.0964 -15.086 -0 12.82431 -0 2.048295 -20.15228 17.29577 -2.127986 -1.446862 2.527535 3.323029 9.273309 -9.10284 1.150377 21.39369 6.854001 2.897303 -23.6447 8.563478 3.500903 -17.02826 11.1524 90.04675 31.01125 -24.00558 -0 0 9.458295 -11.74983 10.25024 6.295723 6.696826 -23.07731 -3.472088 -86.50642 24.67644 12.02078 0 0 -26.2931 7.130854 13.86496 5.070652
1.613154 96.03427 29.1891 -0.381997 -0.9296881 3.380794 5.289885 -29.9712 3.78514 -0 13.58988 -0 -6.262964 -7.016406 -4.709281 -4.631467 16.99763 -14.0823 -0 18.45785 -0 0.7178037 -19.09619 16.38378 -1.910439 -1.234234 2.547346 3.20653 9.414226 -9.016644 1.254383 21.54319 6.695219 2.857616 -23.06155 8.370576 3.340051 -16.41408 11.14395 90.48658 30.26369 -24.35401 -0 0 8.53204 -12.32761 10.4037 6.283976 6.519907 -23.11938 -3.678897 -85.92251 24.36843 11.00994 0 0 -26.54864 6.835914 13.28768 5.38505
